<?xml version="1.0" encoding="UTF-8" standalone="no"?>
<!DOCTYPE svg  PUBLIC '-//W3C//DTD SVG 1.1//EN'  'http://www.w3.org/Graphics/SVG/1.1/DTD/svg11.dtd'>
<svg xmlns="http://www.w3.org/2000/svg" xml:space="preserve" height="100" width="266" version="1.1" overflow="visible" enable-background="new 0 0 266 100" viewBox="0 0 266 100">
	<rect width="266" height="100" fill="#3B5998"/>
	<g fill="#fff">
		<path d="m140.02 49.597c-1.7842 0-3.0703 0.58496-4.374 1.1812v13.486c1.249 0.11914 1.9648 0.11914 3.1504 0.11914 4.2822 0 4.8691-1.9609 4.8691-4.6992v-6.4414c0-2.022-0.67-3.646-3.65-3.646zm-28.44-0.736c-2.9707 0-3.6494 1.6313-3.6494 3.6509v1.1348h7.2944v-1.1348c0.01-2.02-0.67-3.651-3.64-3.651zm-55.087 14.037c0 1.5977 0.75391 2.4277 2.418 2.4277 1.7852 0 2.8418-0.58203 4.1445-1.1797v-3.1992h-3.9033c-1.848 0-2.66 0.344-2.66 1.951zm111.19-13.301c-2.9756 0-4.0068 1.624-4.0068 3.6455v7.3789c0 2.0273 1.0312 3.6562 4.0068 3.6562 2.9678 0 4.0068-1.6289 4.0068-3.6562v-7.3789c0-2.021-1.04-3.645-4.01-3.645zm-125.77 21.575h-8.7476v-21.174h-4.3716v-7.2964h4.3716v-4.3809c0-5.9526 2.4673-9.4922 9.479-9.4922h5.8379v7.2979h-3.6489c-2.73 0-2.9097 1.0195-2.9097 2.9229l-0.010742 3.6523h6.6104l-0.77344 7.2964h-5.8369v21.174zm29.897 0.055h-7.29l-0.31592-1.8438c-3.3291 1.8438-6.3003 2.1426-8.2603 2.1426-5.3467 0-8.1934-3.5723-8.1934-8.5117 0-5.8281 3.3208-7.9082 9.2622-7.9082h6.0469v-1.2598c0-2.9741-0.34082-3.8481-4.9155-3.8481h-7.48l0.73145-7.2964h8.1763c10.038 0 12.239 3.1709 12.239 11.203v17.322zm24.793-20.694c-4.5371-0.77734-5.8398-0.94824-8.0229-0.94824-3.9214 0-5.1064 0.86523-5.1064 4.1948v6.2988c0 3.3301 1.1851 4.1992 5.1064 4.1992 2.1831 0 3.4858-0.17383 8.0229-0.95508v7.1172c-3.9741 0.89062-6.563 1.125-8.7515 1.125-9.3921 0-13.125-4.9395-13.125-12.074v-5.1113c0-7.1411 3.7334-12.089 13.125-12.089 2.1885 0 4.7773 0.23535 8.7515 1.1299v7.112zm27.381 8.957h-16.042v0.58789c0 3.3301 1.186 4.1992 5.1064 4.1992 3.5244 0 5.6753-0.17383 10.204-0.95508v7.1172c-4.3677 0.89062-6.6436 1.125-10.929 1.125-9.3926 0-13.128-4.9395-13.128-12.074v-5.8438c0-6.2427 2.7715-11.356 12.396-11.356s12.393 5.0542 12.393 11.356v5.844zm28.43 0.135c0 6.8965-1.9707 11.926-13.911 11.926-4.3115 0-6.8408-0.37891-11.6-1.1113v-39.421l8.7451-1.4595v13.789c1.8896-0.70215 4.3359-1.0586 6.5625-1.0586 8.7461 0 10.203 3.9209 10.203 10.222v7.113zm28.04 0.15c0 5.9492-2.4561 11.719-12.732 11.719-10.281 0-12.783-5.7695-12.783-11.719v-5.744c0-5.9521 2.502-11.723 12.783-11.723 10.276 0 12.732 5.7705 12.732 11.723v5.744zm28.01 0c0 5.9492-2.459 11.719-12.733 11.719-10.281 0-12.783-5.7695-12.783-11.719v-5.744c0-5.9521 2.502-11.723 12.783-11.723 10.274 0 12.733 5.7705 12.733 11.723v5.744zm28.75 11.397h-9.4795l-8.0166-13.383v13.383h-8.748v-40.153l8.748-1.4595v25.849l8.0166-12.707h9.4795l-8.752 13.867 8.75 14.603zm-41.51-21.575c-2.9707 0-4.002 1.624-4.002 3.6455v7.3789c0 2.0273 1.0312 3.6562 4.002 3.6562 2.9668 0 4.0166-1.6289 4.0166-3.6562v-7.3789c-0.01-2.021-1.06-3.645-4.02-3.645z"/>
		<path d="m242.2 66.178c1.4727 0 2.6465 1.2012 2.6465 2.7012 0 1.5234-1.1738 2.7109-2.6572 2.7109-1.4756 0-2.6729-1.1875-2.6729-2.7109 0-1.5 1.1973-2.7012 2.6729-2.7012h0.01zm-0.01 0.42c-1.1865 0-2.1582 1.0215-2.1582 2.2812 0 1.2832 0.97168 2.291 2.1689 2.291 1.1982 0.011719 2.1553-1.0078 2.1553-2.2793s-0.95703-2.293-2.1553-2.293h-0.01zm-0.5 3.853h-0.48047v-3.013c0.25195-0.035156 0.49219-0.070312 0.85156-0.070312 0.45605 0 0.75391 0.095703 0.93652 0.22656 0.17676 0.13281 0.27246 0.33594 0.27246 0.62305 0 0.39844-0.26172 0.63672-0.58496 0.73438v0.023438c0.2627 0.048828 0.44238 0.28711 0.50293 0.73047 0.070312 0.46875 0.14258 0.64844 0.19043 0.74609h-0.50293c-0.071289-0.097656-0.14355-0.37305-0.2041-0.76953-0.070312-0.38281-0.26367-0.52734-0.64844-0.52734h-0.33301v1.297zm0-1.668h0.34766c0.39355 0 0.72852-0.14453 0.72852-0.51758 0-0.26367-0.19043-0.52734-0.72852-0.52734-0.15723 0-0.26562 0.011719-0.34766 0.023438v1.022z"/>
	</g>
</svg>
