<?xml version="1.0" encoding="UTF-8" standalone="no"?>
<svg width="1e3" xmlns="http://www.w3.org/2000/svg" height="1e3">
 <path d="m0 499.97q0-207.02 146.48-353.49t353.49-146.48 353.49 146.48 146.48 353.49-146.48 353.49-353.49 146.48-353.49-146.48-146.48-353.49zm54.684 0q0 183.58 130.85 314.43t314.43 130.85 314.43-130.85 130.85-314.43-130.85-314.43-314.43-130.85-314.43 130.85-130.85 314.43zm140.62 107.42q-3.906-3.906 0-7.812 7.812-7.812 19.53-5.859t13.671 3.906q13.671 5.859 30.271 26.366t26.366 28.319q46.872 39.06 95.697 5.859 3.906-13.671 12.694-23.436t16.601-13.671 27.342-11.718q-64.449-5.859-104.49-22.46t-63.473-41.989q-31.248-35.154-38.084-91.791t8.789-103.51q11.718-29.295 33.201-52.731-15.624-48.825 5.859-111.32 62.496 3.906 113.27 42.966 97.65-25.389 203.11-1.953 13.671-9.765 41.989-24.413t71.285-16.601q7.812 21.483 10.742 50.778t-2.929 54.684q44.919 46.872 46.872 124.99 0 62.496-21.483 103.51t-76.167 68.355q-37.107 17.577-97.65 21.483 27.342 13.671 40.037 28.319t16.601 45.895v61.52t1.953 59.567q5.859 9.765 13.671 16.601t13.671 9.765 3.906 8.789-15.624 5.859q-33.201 0-52.731-23.436-5.859-9.765-5.859-23.436v-93.744q0-15.624-7.812-22.46t-15.624-8.789v123.04q0 33.201 7.812 42.966t9.765 19.53q1.953 1.953-2.929 2.929t-16.601-2.929q-25.389-5.859-35.154-26.366t-9.765-43.943v-121.09h-25.389v121.09q0 23.436-9.765 44.919-13.671 27.342-50.778 29.295-5.859-1.953-5.859-3.906 1.953-1.953 11.718-19.53 1.953-3.906 4.883-15.624t2.929-27.342v-123.04q-7.812 1.953-14.648 8.789t-6.836 22.46v93.744q0 13.671-5.859 23.436-17.577 23.436-52.731 23.436-13.671 0-15.624-5.859-1.953-3.906 0.977-6.836t8.789-6.836 7.812-5.859q7.812-5.859 11.718-15.624 5.859-7.812 2.929-41.013t-0.977-42.966q-50.778 17.577-103.51-17.577-15.624-15.624-31.248-44.919-11.718-21.483-46.872-50.778z"/>
</svg>
