<?xml version="1.0" encoding="UTF-8" standalone="no"?>
<!DOCTYPE svg  PUBLIC '-//W3C//DTD SVG 1.1//EN'  'http://www.w3.org/Graphics/SVG/1.1/DTD/svg11.dtd'>
<svg width="1017pt" xmlns="http://www.w3.org/2000/svg" viewBox="0 0 1017 300" version="1.1" height="300pt">
 <path d="m0 0h1017v300h-1017v-300z" fill="#fefefe"/>
 <path d="m70.05 15.08c21.11-8.73 44.48-10.24 67-8.01 21.89 2.16 43.39 9.46 61.54 21.98-8.95 9.43-18.27 18.54-27.55 27.65-0.11-5.5 0.04-11.01-0.11-16.51-7.89-6.76-16.15-13.39-25.97-17.13-14.55-5.63-30.67-6.8-46.04-4.56-17.13 2.75-33.19 11.8-44.14 25.29-13.84 16.65-19.62 38.85-18.91 60.23 0.74 23.48 9.16 46.8 24.24 64.89 12.68 15.4 30.37 26.81 49.92 31.06 9.52 2.33 19.38 2.23 29.11 1.9 10.74-0.55 21.42-2.21 31.74-5.26 0.28-16.87 0.04-33.74 0.12-50.61-12.07-0.03-24.14 0.05-36.21-0.04 3.53-3.86 7.35-7.45 11.02-11.18 1.05-1.23 2.81-0.65 4.2-0.81 20.5 0.08 40.99-0.02 61.49 0.06-3.4 3.75-7.2 7.12-10.64 10.83-1.75 1.93-1.81 4.69-1.86 7.14v50.14c-27.91 8.04-56.87 12.98-85.97 12.69-27.05 0.13-54.7-8.58-75.07-26.76-18.71-16.39-29.69-40.46-32.13-65.02-2.14-17.4-0.06-35.37 6.83-51.55 10.49-25.55 31.79-46.2 57.39-56.42z" fill="#1b6eec"/>
 <path d="m664.81 11.78c0.87-0.83 1.73-2.02 3.13-1.76 15.19 0 30.38-0.03 45.57 0.01-3.47 3.72-7.25 7.13-10.7 10.86-1.75 1.93-1.75 4.7-1.82 7.14 0.03 53.32-0.01 106.64 0.02 159.96-0.3 3.82 1.47 8.26 5.52 9.28 5.33 1.11 10.81 1.38 16.2 2.17 0.5 1.16-1.06 1.86-1.6 2.66-2.02 1.96-4 3.95-6 5.92-18.22-0.06-36.43 0.02-54.65-0.05 3.4-3.76 7.21-7.13 10.66-10.84 1.71-1.93 1.85-4.67 1.86-7.11v-168.02c-6.08-0.03-12.16 0.04-18.24-0.04 3.26-3.48 6.76-6.74 10.05-10.18z" fill="#0d9b5c"/>
 <path d="m284.56 77.75c15.07-2 30.98-0.06 44.42 7.33 14.81 7.96 26.04 22.04 30.97 38.07 4.06 12.86 4.14 26.93 0.25 39.84-4.72 15.9-15.32 30.07-29.56 38.66-14.73 9.1-32.75 11.87-49.76 9.72-15.13-1.89-29.65-8.97-39.99-20.24-11.76-12.61-18.34-29.91-17.91-47.15 0.24-15.3 6.03-30.4 16.01-41.98 11.4-13.5 28.14-21.97 45.57-24.25z" fill="#d84c39"/>
 <path d="m439.44 77.63c15.05-1.84 30.88 0.29 44.19 7.82 14.5 8.02 25.46 21.95 30.32 37.75 4.03 12.82 4.13 26.85 0.26 39.72-4.65 15.7-15.02 29.72-28.98 38.35-14.96 9.46-33.42 12.33-50.8 10.04-14.97-1.97-29.32-9.04-39.55-20.21-11.77-12.62-18.35-29.93-17.9-47.18 0.25-15.28 6.03-30.36 16-41.94 11.59-13.73 28.71-22.24 46.46-24.35z" fill="#ffba0e"/>
 <path d="m562.97 82.94c10.02-4.48 21.12-6.1 32.05-5.95 18.99 0.07 37.99-0.1 56.98 0.09-3.93 4.05-7.93 8.03-11.98 11.96-5.11-0.06-10.22-0.08-15.32 0.02 7.63 6.71 14.36 15.04 16.9 25.06 3.2 12.67 1.24 27.07-6.99 37.48-4.65 6.34-11.12 10.92-17.05 15.96-5.12 4.31-8.18 12.24-4.45 18.37 3.66 5.37 9.52 8.63 14.43 12.72 7.99 6.56 16.4 13.29 21.2 22.68 6.34 12.46 5.33 27.93-1.41 40.02-6.68 12.13-18.33 20.86-31.04 25.92-15.87 6.33-33.35 7.54-50.23 5.98-14.57-1.55-29.73-6.4-39.91-17.46-7.02-7.56-10.58-18.42-8.61-28.64 1.98-12.19 10.4-22.58 20.86-28.77 16.29-9.9 35.64-12.9 54.35-14.32-2.93-3.55-6.1-7.14-7.27-11.7-1.5-5.47-0.75-11.32 1.27-16.55-8.04-0.03-16.29 0.25-23.98-2.48-12.9-3.99-23.47-14.43-27.91-27.15-4.66-12.55-3.26-26.87 2.41-38.86 5.22-10.92 14.65-19.56 25.7-24.38z" fill="#1b6eec"/>
 <path d="m764.75 81.79c14.71-6.18 31.71-6.23 46.74-1.12 14.32 4.84 25.13 17.6 28.66 32.16-28.71 11.49-57.31 23.27-86.06 34.65 4.02 16.44 13.45 32.07 27.85 41.37 11.69 7.71 26.52 10.21 40.13 7.06 8.01-1.53 15.24-5.42 22.64-8.65-9.58 13.03-24.47 22.32-40.63 24.18-14.25 1.65-29.25 0.33-42.16-6.29-15.07-7.54-26.27-21.61-31.64-37.44-5.71-16.71-6.05-35.54 0.47-52.07 6.05-15.33 18.77-27.7 34-33.85z" fill="#d84c39"/>
 <path d="m926 84h12v44h44c-0.01 4-0.01 8 0 12h-44v45h-12v-45h-45v-12h45v-44z" fill="#020202"/>
 <path d="m577.41 86.58c8.81-1.68 18.04 1.49 24.49 7.57 8.9 8.33 14.1 19.93 16.69 31.68 1.89 8.86 2.45 18.62-1.7 26.95-4.48 9.19-14.9 14.57-24.93 14.26-8.55-0.1-16.39-4.98-21.67-11.48-7.29-8.89-11.26-20.13-12.8-31.43-1.14-8.71-0.7-18.07 3.66-25.89 3.35-6.05 9.45-10.43 16.26-11.66z" fill="#fefefe"/>
 <path d="m283.24 87.3c11.03-1.84 22.67 2 30.47 9.99 11.8 11.83 17.24 28.42 20.07 44.53 2.23 14.68 2.78 30.91-5 44.14-8.37 14.54-27.9 21.06-43.38 14.65-12.32-4.99-20.5-16.52-25.72-28.29-5.65-13.01-8.6-27.16-8.94-41.33-0.06-9.28 1.13-19.04 6.32-26.98 5.68-9.1 15.67-15.07 26.18-16.71z" fill="#fefefe"/>
 <path d="m437.28 87.3c10.77-1.77 22.16 1.81 29.91 9.49 11.89 11.5 17.42 27.88 20.39 43.76 2.41 15.02 3.18 31.67-4.71 45.29-8.22 14.39-27.34 21.03-42.75 15.05-12.45-4.67-20.8-16.14-26.12-27.85-5.86-13.2-8.91-27.62-9.24-42.04-0.08-9.49 1.2-19.52 6.68-27.54 5.73-8.81 15.54-14.55 25.84-16.16z" fill="#fefefe"/>
 <path d="m755.13 104.21c6.6-12.82 22.78-20.87 36.78-16.06 8.46 2.83 16.09 9.45 18.57 18.22 0.57 2.43 1.15 5.41-0.55 7.53-1.99 2.35-5.05 3.22-7.79 4.34-16.72 6.72-33.38 13.59-50.12 20.26-2.07-11.37-2.3-23.77 3.11-34.29z" fill="#fefefe"/>
 <path d="m584.6 213.85c6.09-0.59 12.28-1.35 18.37-0.55 5.37 3.43 10.39 7.42 15.42 11.34 6.21 5.17 12.69 11.04 14.81 19.15 2.59 9.45-0.74 19.98-7.95 26.52-8.64 8-20.81 10.74-32.28 10.88-12.68-0.05-25.9-2.38-36.54-9.68-8-5.45-13.93-14.61-13.69-24.51-0.41-7.97 3.18-15.86 9.18-21.04 8.98-7.89 21.09-10.77 32.68-12.11z" fill="#fefefe"/>
</svg>
