<?xml version="1.0" encoding="UTF-8" standalone="no"?>
<!-- Created with Inkscape (http://www.inkscape.org/) -->
<svg id="svg2" xmlns:rdf="http://www.w3.org/1999/02/22-rdf-syntax-ns#" xmlns="http://www.w3.org/2000/svg" height="104.2mm" width="74.343mm" version="1.1" xmlns:cc="http://creativecommons.org/ns#" xmlns:dc="http://purl.org/dc/elements/1.1/" viewBox="0 0 263.42168 369.2045">
 <metadata id="metadata7">
  <rdf:RDF>
   <cc:Work rdf:about="">
    <dc:format>image/svg+xml</dc:format>
    <dc:type rdf:resource="http://purl.org/dc/dcmitype/StillImage"/>
    <dc:title/>
   </cc:Work>
  </rdf:RDF>
 </metadata>
 <g id="layer1" transform="translate(-148.83 -357.65)">
  <g id="g4147" transform="matrix(1.8696 0 0 1.8696 -461.81 -403.55)">
   <rect id="rect4191" style="color-rendering:auto;color:#000000;isolation:auto;mix-blend-mode:normal;shape-rendering:auto;solid-color:#000000;image-rendering:auto" height="112.11" width="42.549" y="463.61" x="396.59" fill="#fff"/>
   <path id="path4153" fill="#f0be25" d="m396.64 584.19v-8.9614l4.25-1.1296c10.814-2.8743 32.035-8.899 32.308-9.1726 0.16769-0.16769 1.2344-10.648 2.3706-23.29 1.1361-12.642 2.3194-24.898 2.6296-27.235l0.56395-4.25h-21.061-21.061v-13.608-13.608l10.25 0.72089c5.6375 0.39649 10.588 0.92158 11 1.1669 0.4125 0.2453 0.75 2.1566 0.75 4.2474s0.28617 5.8892 0.63592 8.441l0.63593 4.6396h9.317 9.317l-0.53373-4.75c-0.29355-2.6125-1.0618-11.05-1.7073-18.75l-1.1736-14-19.307-0.27181-19.307-0.27181 0.31173-3.2282 0.31173-3.2282 28.75-0.26533c26.917-0.24842 28.748-0.15279 28.727 1.5-0.0763 5.7328-10.819 120.44-11.327 120.95-0.46757 0.46756-45.156 13.288-46.4 13.312-0.1375 0.003-0.25-4.028-0.25-8.9568zm0-41.611v-13.428h10.608 10.608l-0.70829 10.25c-0.38956 5.6375-1.0021 10.566-1.3612 10.953-0.35908 0.38681-4.8139 1.8168-9.8996 3.1779l-9.2467 2.4746v-13.428z"/>
   <rect id="rect4189" style="color-rendering:auto;color:#000000;isolation:auto;mix-blend-mode:normal;shape-rendering:auto;solid-color:#000000;image-rendering:auto" height="115.76" width="39.447" y="460.19" x="357.11" fill="#eaebec"/>
   <path id="path4151" fill="#e4a126" d="m368.36 597.21c-15.282-4.2912-27.992-8.009-28.244-8.2617-0.25274-0.25273-3.1521-30.8-6.4431-67.882s-6.2239-69.11-6.5176-71.172l-0.53399-3.75h70.449 70.449l-0.46073 3.25c-0.25339 1.7875-3.1744 33.837-6.4911 71.221s-6.1956 68.136-6.3976 68.338c-0.38407 0.38408-52.543 14.963-56.025 15.66-1.1 0.22003-14.503-3.1109-29.785-7.4022zm51.551-10.42c12.521-3.4895 23.044-6.6226 23.384-6.9624 0.50818-0.50818 11.251-115.22 11.327-120.95 0.022-1.6528-1.8094-1.7484-28.727-1.5l-28.75 0.26533-0.31336 3.25-0.31336 3.25h-16.437c-9.0402 0-16.437 0.15515-16.437 0.34478 0 0.96525-5.0374 54.898-5.5485 59.405l-0.59537 5.25h19.572 19.572v13.327 13.327l-9.4117-2.4579-9.4117-2.4579-0.68979-6.8686-0.68979-6.8686h-9.5098-9.5098l0.56085 3.25c0.30847 1.7875 0.86599 7.8551 1.2389 13.484 0.37295 5.6284 1.1832 10.609 1.8004 11.068 0.61729 0.45916 6.5224 2.3027 13.122 4.0967 6.6 1.794 14.362 3.9327 17.25 4.7526l5.25 1.4908v8.929c0 4.911 0.1125 8.9269 0.25 8.9244 0.1375-0.003 10.495-2.8597 23.016-6.3492zm-41.249-79.896c0.041-7.6839 2.0954-22.203 3.2451-22.933 0.68069-0.43232 4.2751-0.79294 7.9876-0.80136l6.75-0.0153v13.5 13.5h-9-9l0.0173-3.25z"/>
   <path id="path4149" fill="#121313" d="m371.64 429.7v-4.4523l6.25-0.29772 6.25-0.29772 0.28893-8.75 0.28894-8.75h3.9611 3.9611v13.5 13.5h-10.5-10.5v-4.4523zm26 0.50218v-3.9501l5.5793-0.29991 5.5792-0.2999-5.5792-6.1573c-4.2424-4.6819-5.5793-6.8983-5.5793-9.25v-3.0927h12.5 12.5v3.5 3.5h-5.5c-3.025 0-5.5 0.28759-5.5 0.6391 0 0.3515 2.475 3.4582 5.5 6.9037 4.1336 4.7083 5.5 7.0338 5.5 9.3609v3.0963h-12.5-12.5v-3.9501z"/>
  </g>
 </g>
</svg>
