<?xml version="1.0" encoding="UTF-8" standalone="no"?>
<!-- Created with Inkscape (http://www.inkscape.org/) -->
<svg id="svg2" xmlns:rdf="http://www.w3.org/1999/02/22-rdf-syntax-ns#" xmlns="http://www.w3.org/2000/svg" height="239" width="249" version="1.0" xmlns:cc="http://web.resource.org/cc/" xmlns:dc="http://purl.org/dc/elements/1.1/">
 <metadata id="metadata7">
  <rdf:RDF>
   <cc:Work rdf:about="">
    <dc:format>image/svg+xml</dc:format>
    <dc:type rdf:resource="http://purl.org/dc/dcmitype/StillImage"/>
   </cc:Work>
  </rdf:RDF>
 </metadata>
 <path id="path5107" d="m195.68 6.6571l-73.03 112.84-35.507-23.812 108.54-89.031z" fill-rule="evenodd" fill="#d9e2e8"/>
 <path id="path4136" d="m84.301 110.4l10.563-9.58-7.695-5.126-2.868 14.706z" fill-rule="evenodd" fill="#336682"/>
 <path id="path3165" d="m195.72 6.627l-119.3 80.978 7.872 22.785 2.9-14.707 108.53-89.056z" fill-rule="evenodd" fill="#869aab"/>
 <path id="path2192" d="m195.7 6.6427l-136.88 65.637 17.602 15.308 119.28-80.945z" fill-rule="evenodd" fill="#d9e2e8"/>
 <path id="path6078" d="m7.87 134.5v60.89h21.953v-6.83h-13.462v-54.27l-8.491 0.21z" fill-rule="evenodd" fill="#336783"/>
 <path id="path6080" d="m34.587 134.92h8.905v60.47h-9.32l0.415-60.47z" fill-rule="evenodd" fill="#336783"/>
 <path id="path6082" d="m81.186 145.39s-2.9-11.6-12.22-12.22c-9.319-0.62-13.565 4.5-14.981 7.11-1.634 3.01-2.531 7.48-2.67 14.57-0.142 7.29-0.086 14.66-0.086 15.39 0 1.18 0.083 9.92 1.71 14.27 1.539 4.12 1.251 4.19 3.928 7.32 2.929 3.43 6.012 3.56 8.93 3.56 5.513 0 6.186-0.21 8.962-1.6 6.82-3.41 6.841-23.55 6.841-31.11 0-0.18 0.028 2 0 2 0 0 0.028-2 0-2h-15.122l0.003 5.9h6.873s0.863 16.28-2.938 17.68c-3.503 1.3-7.415 1.34-9.145-1.81-0.661-1.2-1.173-2.09-1.495-3.35-0.322-1.25-0.455-2.87-0.455-3.27 0-3.33 0.326-21.49 0.326-23.98 0-13.3 5.728-12.88 7.041-12.81 1.114 0.06 3.8 0.9 4.836 3.17 1.195 2.63 2.212 4.97 2.212 4.97l7.45-3.79z" fill-rule="evenodd" fill="#336783"/>
 <path id="path6084" d="m89.056 135.12v60.27h8.284v-29.41h12.43v29.41h7.87v-60.27h-7.87v23.2h-12.43v-23.2h-8.284z" fill-rule="evenodd" fill="#336783"/>
 <path id="path6090" d="m179.16 135.11v60.28h8.46v-26.72s7.98 1.01 12.6-2.42c4.76-3.53 4.75-9.71 4.75-14.44 0-5.74-2.22-12.14-6.62-14.61-4.07-2.28-16-2.09-19.19-2.09zm15.93 10.85c1.48 1.48 2.15 9.31 0.21 12.85-1.21 2.23-2.94 3.42-7.46 3.42v-19.44c4.28 0 5.49 1.41 7.25 3.17z" fill-rule="evenodd" fill="#889cad"/>
 <path id="path6179" d="m145.96 228.23v-14.85h3.05v-2.12h-3.29s-0.1-2.61 0.72-3.44c0.68-0.68 3.09-0.6 3.09-0.6v-1.97s-2.99-0.27-4.35 0.52c-1.94 1.12-1.66 5.49-1.68 5.49h-2.82v2.12h2.53v14.85h2.75z" fill-rule="evenodd" fill="#8697ad"/>
 <path id="path6181" d="m153.05 205.35v22.88h-3v-22.94l3 0.06z" fill-rule="evenodd" fill="#8697ad"/>
 <path id="path6183" d="m156.47 210.91l5.12 12.56 4.72-12.56h2.95s-6.71 19.33-7.34 20.29c-0.45 0.67-1.32 1.75-1.94 2.25-0.66 0.53-1.45 0.65-1.78 0.65-2.42 0-3.23-0.05-3.23-0.05v-2.43s2.47 0.47 3.22-0.15c0.76-0.63 0.95-0.55 1.5-1.75s1.21-1.98 0.35-4.01c-6.23-14.75-6.26-14.8-6.26-14.8h2.69z" fill-rule="evenodd" fill="#8697ad"/>
 <path id="path13056" d="m195.91 210.91c-1.53 0-3.63 0.74-4.91 2.03s-2.5 4.47-2.5 7.31c0 2.86 1.34 4.72 2.38 5.78 1.04 1.07 2.27 1.66 5.03 1.66 2.78 0 5.04-2.8 5.06-2.88 0.02-0.07 0 3.87 0 4.35 0 0.83-1.22 3.49-5.06 3.46-3.87-0.02-4.53-3.62-4.53-3.62l-2.44 0.06s-0.39 2.24 1.44 3.85c1.45 1.28 3.81 1.59 5.53 1.59 5.89 0 7.11-3.82 7.4-5.75 0.14-0.94 0-17.69 0-17.69h-2.31v2.78c0-1.04-1.05-1.56-1.5-1.93-0.46-0.39-2.06-1-3.59-1zm0 2.59c2.7 0 4.9 2.68 4.9 5.97s-2.2 6-4.9 6c-2.71 0-4.94-2.71-4.94-6s2.23-5.97 4.94-5.97z" fill-rule="evenodd" fill="#8697ad"/>
 <path id="path6193" d="m206.07 205.29v22.94h3v-11.91s0.78-3.36 4.3-3.36 4.45 3 4.45 3v12.22h2.33v-11.65s-0.51-5.26-6.54-5.39c-2.79-0.07-4.33 1.34-4.54 1.61v-7.56l-3 0.1z" fill-rule="evenodd" fill="#8697ad"/>
 <path id="path6195" d="m227.09 213.16v11.39c0 0.98 2.93 0.71 2.93 0.73v2.95h-3.51c-1.6 0-2.57-1.47-2.58-2.67l-0.05-12.03h-2.69v-2.59h2.9v-4.71h2.9v4.45h3v2.54l-2.9-0.06z" fill-rule="evenodd" fill="#8697ad"/>
 <rect id="rect6197" height="2.8641" width="2.8473" y="225.37" x="233.51" fill="#8697ad"/>
 <g id="g7099" fill-rule="evenodd">
  <path id="path6086" d="m121.99 135.12h26.29v7.46h-8.48v52.81h-8.7v-52.81h-9.11v-7.46z" fill="#336783"/>
  <path id="path12052" d="m148.28 135.12h26.3v7.46h-8.49v52.81h-8.69v-52.81h-9.12v-7.46z" fill="#889cad"/>
 </g>
 <path id="path12070" d="m211.84 136.86v58.53c14.1 0 19.8-0.57 23.5-7.31 5.78-10.53 5.13-37.15-0.59-46.03-5.51-5.29-9.55-5.19-22.91-5.19zm7.91 6.44c5.69 0 7.4-0.08 9.75 4.03 2.44 6.9 2.71 27.6 0.25 35.78-1.58 5.24-3.99 5.66-10 5.66v-45.47z" fill-rule="evenodd" fill="#889cad"/>
 <path id="path13051" d="m181.1 205.35v22.88h-3v-22.94l3 0.06z" fill-rule="evenodd" fill="#8697ad"/>
 <path id="path7087" d="m186.31 211.21v17.02h-3v-17.06l3 0.04z" fill-rule="evenodd" fill="#8697ad"/>
 <path id="path7089" d="m186.31 205.3v4.43h-3v-4.44l3 0.01z" fill-rule="evenodd" fill="#8697ad"/>
</svg>
