<?xml version="1.0" encoding="UTF-8" standalone="no"?>
<!-- Created with Inkscape (http://www.inkscape.org/) -->
<svg id="svg3070" xmlns:rdf="http://www.w3.org/1999/02/22-rdf-syntax-ns#" xmlns="http://www.w3.org/2000/svg" height="79.46" width="291" version="1.1" xmlns:cc="http://creativecommons.org/ns#" xmlns:dc="http://purl.org/dc/elements/1.1/">
 <metadata id="metadata3075">
  <rdf:RDF>
   <cc:Work rdf:about="">
    <dc:format>image/svg+xml</dc:format>
    <dc:type rdf:resource="http://purl.org/dc/dcmitype/StillImage"/>
    <dc:title/>
   </cc:Work>
  </rdf:RDF>
 </metadata>
 <g id="layer1" transform="translate(-200.55 -393.96)">
  <g id="g3019" transform="matrix(1.0188 0 0 -1.0188 170.6 498.03)">
   <path id="path14" d="m239.33 95.036c0 2.96 2.4604 5.361 5.4956 5.361h63.376c3.0351 0 5.4956-2.401 5.4956-5.361v-64.117c0-2.961-2.4605-5.361-5.4956-5.361h-63.376c-3.0352 0-5.4956 2.4-5.4956 5.361v64.117z" fill="#069"/>
   <path id="path16" d="m31.152 37.709h31.036v10.189h-19.804v38.874h-11.231v-49.063z" fill-rule="evenodd"/>
   <path id="path18" d="m77.9 37.709v33.793h-11.232v-33.793h11.232zm-5.6162 38.407c3.917 0 6.355 2.595 6.355 5.84-0.073 3.315-2.438 5.837-6.2803 5.837-3.8428 0-6.355-2.522-6.355-5.837 0-3.245 2.4375-5.84 6.207-5.84h0.073z" fill-rule="evenodd"/>
   <path id="path20" d="m83.115 37.709h11.232v18.872c0 1.01 0.073 2.019 0.3701 2.741 0.8115 2.017 2.6596 4.107 5.7627 4.107 4.0649 0 5.6909-3.1 5.6909-7.64v-18.08h11.231v19.377c0 10.38-5.542 15.21-12.932 15.21-6.0591 0-8.7197-3.387-10.198-5.694h0.075v4.9h-11.232c0.1475-3.171 0-33.793 0-33.793z" fill-rule="evenodd"/>
   <path id="path22" d="m133.25 86.772h-11.233v-49.063h11.233v10.956l2.8072 3.534 8.7939-14.49h13.818l-14.778 20.977 12.932 14.272h-13.522s-9.2368-12.769-10.05-14.283v28.097z" fill-rule="evenodd"/>
   <path id="path24" d="m188.71 51.805c0.1475 0.868 0.3697 2.533 0.3697 4.415 0 8.736-4.4346 17.604-16.109 17.604-12.489 0-18.252-9.877-18.252-18.835 0-11.08 7.02-18 19.287-18 4.8774 0 9.3843 0.72 13.08 2.234l-1.4785 7.418c-3.0293-1.005-6.1329-1.507-9.9751-1.507-5.2466 0-9.8277 2.153-10.198 6.743l23.277-0.07zm-23.35 7.599c0.2954 2.884 2.2168 7.138 7.02 7.138 5.0976 0 6.2807-4.543 6.2807-7.138h-13.301z" fill-rule="evenodd"/>
   <path id="path26" d="m216.8 86.772v-16.984h-0.1475c-1.626 2.377-5.0259 3.963-9.5322 3.963-8.6465 0-16.257-6.92-16.184-18.741 0-10.958 6.8726-18.094 15.444-18.094 4.6553 0 9.0889 2.019 11.306 5.912h0.2222l0.4433-5.119h9.9766c-0.148 2.379-0.2969 6.488-0.2969 10.524v38.539h-11.231zm0-33.421c0-0.864-0.074-1.73-0.2222-2.45-0.6641-3.1-3.3252-5.262-6.5757-5.262-4.6557 0-7.6855 3.748-7.6855 9.659 0 5.55 2.5869 10.019 7.7588 10.019 3.4726 0 5.9116-2.378 6.5771-5.333 0.1475-0.65 0.1475-1.371 0.1475-2.019v-4.614z" fill-rule="evenodd"/>
   <path id="path28" d="m261.87 37.749v33.794h-11.232v-33.794h11.232zm-5.6163 38.408c3.917 0 6.355 2.595 6.355 5.838-0.073 3.316-2.438 5.839-6.2807 5.839-3.8423 0-6.3545-2.523-6.3545-5.839 0-3.243 2.4375-5.838 6.207-5.838h0.073z" fill-rule="evenodd" fill="#fff"/>
   <path id="path30" d="m268.09 37.749h11.232v18.872c0 1.01 0.073 2.019 0.3696 2.741 0.812 2.018 2.6602 4.108 5.7632 4.108 4.0645 0 5.6904-3.099 5.6904-7.642v-18.079h11.232v19.377c0 10.38-5.5415 15.21-12.932 15.21-6.0596 0-8.7198-3.387-10.198-5.694h0.075v4.901h-11.232c0.1474-3.171 0-33.794 0-33.794z" fill-rule="evenodd" fill="#fff"/>
  </g>
 </g>
</svg>
