<?xml version="1.0" encoding="UTF-8" standalone="no"?>
<!DOCTYPE svg  PUBLIC '-//W3C//DTD SVG 1.1//EN'  'http://www.w3.org/Graphics/SVG/1.1/DTD/svg11.dtd'>
<svg xmlns:rdf="http://www.w3.org/1999/02/22-rdf-syntax-ns#" xmlns="http://www.w3.org/2000/svg" height="600pt" width="500pt" xmlns:cc="http://web.resource.org/cc/" xmlns:xlink="http://www.w3.org/1999/xlink" xmlns:dc="http://purl.org/dc/elements/1.1/">
 <defs>
  <linearGradient id="linearGradient167">
   <stop id="stop168" stop-color="#fff" stop-opacity=".65" offset="0"/>
   <stop id="stop169" stop-color="#fff" stop-opacity="0" offset="1"/>
  </linearGradient>
  <linearGradient id="linearGradient162">
   <stop id="stop163" stop-color="#ffa63f" offset="0"/>
   <stop id="stop164" stop-color="#ff0" offset="1"/>
  </linearGradient>
  <linearGradient id="linearGradient153">
   <stop id="stop154" stop-color="#ffeed7" offset="0"/>
   <stop id="stop155" stop-color="#bdbfc2" offset="1"/>
  </linearGradient>
  <linearGradient id="linearGradient138">
   <stop id="stop139" stop-color="#fff" stop-opacity=".8" offset="0"/>
   <stop id="stop140" stop-color="#fff" stop-opacity="0" offset="1"/>
  </linearGradient>
  <radialGradient id="radialGradient1399" gradientUnits="userSpaceOnUse" cy="1219.4" cx="446.78" gradientTransform="scale(1.0452 .95672)" r="195.07">
   <stop id="stop173" stop-color="#3f2600" stop-opacity=".6" offset="0"/>
   <stop id="stop174" stop-color="#3f2600" stop-opacity="0" offset="1"/>
  </radialGradient>
  <linearGradient id="linearGradient1401" y2="304.08" xlink:href="#linearGradient153" gradientUnits="userSpaceOnUse" x2="400.84" gradientTransform="scale(.57526 1.7383)" y1="369.53" x1="400.58"/>
  <linearGradient id="linearGradient1403" y2="330.1" xlink:href="#linearGradient138" gradientUnits="userSpaceOnUse" x2="297.09" gradientTransform="scale(1.1161 0.896)" y1="237.93" x1="303.02"/>
  <linearGradient id="linearGradient1405" y2="243.92" xlink:href="#linearGradient153" gradientUnits="userSpaceOnUse" x2="380.27" gradientTransform="scale(.81650 1.2247)" y1="278.6" x1="378.94"/>
  <linearGradient id="linearGradient1407" y2="245.68" xlink:href="#linearGradient153" gradientUnits="userSpaceOnUse" x2="380.55" gradientTransform="scale(.81650 1.2247)" y1="277.5" x1="381.39"/>
  <linearGradient id="linearGradient1409" y2="281.02" xlink:href="#linearGradient167" gradientUnits="userSpaceOnUse" x2="376.8" gradientTransform="scale(.81650 1.2247)" y1="240.93" x1="379.1"/>
  <linearGradient id="linearGradient1411" y2="281.33" xlink:href="#linearGradient167" gradientUnits="userSpaceOnUse" x2="387.07" gradientTransform="scale(.81650 1.2247)" y1="242.28" x1="389.64"/>
  <linearGradient id="linearGradient1413" y2="394.1" xlink:href="#linearGradient153" spreadMethod="reflect" gradientUnits="userSpaceOnUse" x2="437.58" gradientTransform="scale(.81286 1.2302)" y1="528.87" x1="437.58"/>
  <linearGradient id="linearGradient1415" y2="324.04" xlink:href="#linearGradient153" gradientUnits="userSpaceOnUse" x2="377.49" gradientTransform="scale(.64978 1.539)" y1="419.78" x1="375.17"/>
  <linearGradient id="linearGradient1417" y2="614.5" xlink:href="#linearGradient138" gradientUnits="userSpaceOnUse" x2="321.32" gradientTransform="scale(1.0748 .93041)" y1="498.18" x1="320.75"/>
  <linearGradient id="linearGradient1419" y2="488.48" xlink:href="#linearGradient167" gradientUnits="userSpaceOnUse" x2="323.25" gradientTransform="scale(1.077 .92850)" y1="435.27" x1="322.48"/>
  <linearGradient id="linearGradient1421" y2="331.45" xlink:href="#linearGradient167" gradientUnits="userSpaceOnUse" x2="411.22" gradientTransform="scale(.57171 1.7491)" y1="242.94" x1="411.22"/>
  <linearGradient id="linearGradient1423" y2="314.84" xlink:href="#linearGradient167" gradientUnits="userSpaceOnUse" x2="867.33" gradientTransform="scale(.57267 1.7462)" y1="234.74" x1="867.35"/>
  <linearGradient id="linearGradient1425" y2="737.41" xlink:href="#linearGradient162" gradientUnits="userSpaceOnUse" x2="212.51" gradientTransform="scale(1.0115 .98862)" y1="657.11" x1="236.25"/>
  <linearGradient id="linearGradient1427" y2="386.67" xlink:href="#linearGradient153" gradientUnits="userSpaceOnUse" x2="279.64" gradientTransform="scale(1.0655 .93853)" y1="655.73" x1="381.57"/>
  <linearGradient id="linearGradient1429" y2="737.85" xlink:href="#linearGradient162" gradientUnits="userSpaceOnUse" x2="203.13" gradientTransform="scale(1.0099 .99024)" y1="630.3" x1="218.12"/>
  <linearGradient id="linearGradient1431" y2="704.73" xlink:href="#linearGradient167" gradientUnits="userSpaceOnUse" x2="182.25" gradientTransform="scale(1.0077 .99234)" y1="587.24" x1="117.89"/>
  <linearGradient id="linearGradient1433" y2="710.98" xlink:href="#linearGradient167" gradientUnits="userSpaceOnUse" x2="230.53" gradientTransform="scale(.99950 1.0005)" y1="570.42" x1="223.1"/>
  <linearGradient id="linearGradient1435" y2="582.64" xlink:href="#linearGradient167" gradientUnits="userSpaceOnUse" x2="371.61" gradientTransform="scale(1.0655 .93853)" y1="474.02" x1="316.94"/>
  <linearGradient id="linearGradient1437" y2="485.7" xlink:href="#linearGradient162" gradientUnits="userSpaceOnUse" x2="285.46" gradientTransform="scale(1.2187 .82056)" y1="410.46" x1="284.69"/>
  <linearGradient id="linearGradient1439" y2="482.56" xlink:href="#linearGradient167" gradientUnits="userSpaceOnUse" x2="288.38" gradientTransform="scale(1.2219 .81837)" y1="398.85" x1="288.82"/>
 </defs>
 <g id="g1369" transform="translate(-310.75 -64.253)">
  <path id="path175" fill="url(#radialGradient1399)" transform="matrix(1.4177 0 0 .41474 -38.794 222.19)" d="m670.88 1166.6a203.9 186.63 0 1 1 -407.79 0 203.9 186.63 0 1 1 407.79 0z"/>
  <path id="path106" d="m223.63 632.24c-22.39-32.22-26.76-136.98 25.48-201.43 25.89-30.92 32.49-52.47 34.53-81.39 1.39-32.98-23.32-131.44 69.89-138.95 94.4-7.53 89.33 85.66 88.79 134.98-0.45 41.64 30.58 65.24 51.8 97.69 39.28 59.63 35.95 162.3-7.4 217.88-54.92 69.56-101.96 39.39-133.19 41.92-58.49 3.21-60.43 34.4-129.9-70.7z" transform="matrix(1.25 0 0 1.25 185.45 -167.5)"/>
  <path id="path113" d="m246.57 470.86c-12.24 12.5-44.39 69.1 4.87 105.36 17.37 12.64-16.38 59.5-32 36.31-27.58-41.62-8.84-106.94 8.31-130.19 11.65-16.48 29.23-22.67 18.82-11.48z" fill="url(#linearGradient1401)" transform="matrix(-1.6774 -.022452 -.021124 1.4709 1173.6 -293.02)"/>
  <path id="path111" d="m256.51 459.84c-19.91 17.71-56.17 80.09-3.29 120.6 17.38 12.64-15.39 52.47-33.78 32.09-63.97-70.82 1.66-152.25 24.26-180.25 20.19-24.34 38.08 5.75 12.81 27.56z" transform="matrix(-1.6776 0 0 1.5237 1174.6 -318.08)" stroke="#000" stroke-width=".97730"/>
  <path id="path114" fill="url(#linearGradient1403)" transform="matrix(1.2663 -.071367 -.045980 1.1957 202.14 -125.76)" d="m399.57 258.16a58.373 46.863 0 1 1 -116.75 0 58.373 46.863 0 1 1 116.75 0z"/>
  <path id="path115" fill="url(#linearGradient1405)" transform="matrix(1.3044 -.075533 .077125 1.3426 144.76 -177.62)" d="m328.86 320.64a18.087 27.131 0 1 1 -36.17 0 18.087 27.131 0 1 1 36.17 0z"/>
  <path id="path116" fill="url(#linearGradient1407)" transform="matrix(-1.8108 .049511 .031732 1.5533 1207.5 -284.78)" d="m328.86 320.64a18.087 27.131 0 1 1 -36.17 0 18.087 27.131 0 1 1 36.17 0z"/>
  <path id="path117" transform="matrix(-.82320 -.0017612 -.018232 .85266 913.67 -37.99)" d="m328.86 320.64a18.087 27.131 0 1 1 -36.17 0 18.087 27.131 0 1 1 36.17 0z"/>
  <path id="path118" transform="matrix(.59438 -.072296 .068818 .70584 367.45 32.419)" d="m328.86 320.64a18.087 27.131 0 1 1 -36.17 0 18.087 27.131 0 1 1 36.17 0z"/>
  <path id="path121" fill="url(#linearGradient1409)" transform="matrix(-.48032 -.036454 -.046794 .47561 813.5 87.012)" d="m328.86 320.64a18.087 27.131 0 1 1 -36.17 0 18.087 27.131 0 1 1 36.17 0z"/>
  <path id="path122" fill="url(#linearGradient1411)" transform="matrix(.35691 -.040821 .041323 .39854 449.33 114.99)" d="m328.86 320.64a18.087 27.131 0 1 1 -36.17 0 18.087 27.131 0 1 1 36.17 0z"/>
  <path id="path128" d="m258.7 495.42c12.84-29.1 40.12-80.22 40.7-119.75 0-31.45 94.18-38.95 101.73-7.56 7.56 31.39 26.75 78.48 38.95 101.15 12.21 22.68 47.81 94.7 9.89 157.55-34.16 55.65-137.73 99.67-193.01-7.56-18.6-37.2-15.29-83.31 1.74-123.83z" fill="url(#linearGradient1413)" transform="matrix(1.25 0 0 1.25 185.45 -168.23)"/>
  <path id="path112" d="m242.9 473.82c-11.26 18.96-35.5 69.3 12.14 102.04 51.31 34.82 46.48 97.06-15.6 61.96-56.78-31.79-22.85-137.78-4.52-162.27 12.11-17.21 29.9-38.03 7.98-1.73z" fill="url(#linearGradient1415)" transform="matrix(1.3894 -.11107 .10221 1.3021 108.41 -165.94)"/>
  <path id="path109" d="m256.51 449.72c-17.46 28.51-59.37 95.81-3.29 130.72 75.57 46.36 54.18 92.71-14.79 50.98-97.11-58.27-11.83-175.62 27.13-220.34 44.44-50.2 8.55 9.09-9.05 38.64z" transform="matrix(1.25 0 0 1.25 185.45 -167.5)" stroke="#000" stroke-width="1.25"/>
  <path id="path125" transform="matrix(1.3021 0 0 1.2252 170.04 -153.56)" fill="url(#linearGradient1417)" d="m421.48 504.73c0 32.41-29.27 74.51-79.53 74.13-51.83 0.46-73.95-41.72-73.95-74.13s34.38-58.72 76.74-58.72 76.74 26.31 76.74 58.72z"/>
  <path id="path127" transform="matrix(1.1868 0 0 1.0671 210.62 -100.08)" fill="url(#linearGradient1419)" d="m398.23 412.29c-0.61 38.57-23.18 47.67-51.74 47.67s-49.29-5.69-51.74-47.67c0-26.31 23.18-41.54 51.74-41.54s51.74 15.23 51.74 41.54z"/>
  <path id="path129" d="m234.28 456.48c17.72-27 55.02-68.37 6.98 5.81-38.95 61.04-14.4 100.27-1.74 111.04 36.52 32.56 34.96 54.35 6.39 37.2-61.62-36.62-48.83-98.25-11.63-154.05z" fill="url(#linearGradient1421)" transform="matrix(1.25 0 0 1.25 185.45 -167.5)"/>
  <path id="path131" d="m490.66 467.52c-15.32-31.7-64.13-111.9 2.33-18.6 60.46 84.29 18.02 143.01 10.46 148.82-7.55 5.82-33.13 17.44-25.58-2.9 7.56-20.35 45.24-58.98 12.79-127.32z" fill="url(#linearGradient1423)" transform="matrix(1.25 0 0 1.25 185.45 -167.5)"/>
  <path id="path132" d="m220.92 716.92c-40.45-21.42-99.26 4.12-77.91-54.06 4.28-13.24-6.37-33.01 0.58-45.93 8.14-15.7 25.58-12.21 36.05-22.67 10.32-10.9 16.86-29.65 36.04-26.75 19.19 2.91 31.95 26.46 45.35 55.23 9.88 20.64 44.94 49.67 42.65 72.76-2.7 35.5-43.03 42.19-82.76 21.42z" transform="matrix(1.25 0 0 1.25 185.45 -167.5)" stroke="#e68c3f" stroke-width="6.25" fill="url(#linearGradient1425)"/>
  <path id="path177" transform="matrix(.59821 .26858 -.23962 .61721 700.57 140.46)" fill="url(#linearGradient1427)" d="m415.07 495.76c-3.01 24.91-35.81 76.63-69.52 81.54-34.26 5.33-66.43-34.06-74.14-71.12-9.89-41.2 22.58-57.6 71.93-56.62 53.31 1.65 74.13 13.89 71.73 46.2z"/>
  <path id="path133" d="m220.27 718.4c-41.32-23.59-99.89 5.61-77.26-55.54 4.74-13.07-6.59-33.56 0.36-46.48 8.14-15.69 25.8-11.66 36.27-22.12 10.32-10.9 18.83-27.87 38.01-24.97 19.19 2.91 29.98 24.68 43.38 53.45 9.88 20.64 43.41 48.97 41.12 72.07-2.69 35.5-42.72 45.47-81.88 23.59z" transform="matrix(-1.1685 .42314 .47528 1.1648 728.34 -213.82)" stroke="#e68c3f" stroke-width="6.2507" fill="url(#linearGradient1429)"/>
  <path id="path134" d="m216.48 675.68c-86.53-57.5-47.31-70.96-36.84-81.42 10.32-10.9 18.83-27.87 38.01-24.97 19.19 2.91 29.98 24.68 43.38 53.45 9.88 20.64 43.06 48.92 41.12 72.07-2.61 27.11-48.19 5.48-85.67-19.13z" fill="url(#linearGradient1431)" transform="matrix(-.94510 .34374 .42408 .95606 714.33 -64.342)"/>
  <path id="path135" d="m216.51 677.07c-86.53-57.5-46.8-73.57-33.95-81.28 15.4-9.94 15.16-30.83 34.34-27.92 19.19 2.9 30.73 26.1 44.13 54.87 9.88 20.64 43.06 48.92 41.12 72.07-2.61 27.11-48.17 6.87-85.64-17.74z" fill="url(#linearGradient1433)" transform="matrix(1.0043 -.052286 -.0174 1.0458 244.19 -28.465)"/>
  <path id="path136" transform="matrix(.51558 .21526 -.20653 .49467 713.3 222.56)" d="m415.07 495.76c-3.01 24.91-35.81 76.63-69.52 81.54-34.26 5.33-66.43-34.06-74.14-71.12-9.89-41.2 22.58-57.6 71.93-56.62 53.31 1.65 74.13 13.89 71.73 46.2z"/>
  <path id="path137" transform="matrix(.35123 .14946 -.12886 .34347 724.52 318.29)" fill="url(#linearGradient1435)" d="m415.07 495.76c-3.01 24.91-35.81 76.63-69.52 81.54-34.26 5.33-66.43-34.06-74.14-71.12-9.89-41.2 22.58-57.6 71.93-56.62 53.31 1.65 74.13 13.89 71.73 46.2z"/>
  <path id="path119" d="m309.95 338.73c7.15-6.77 24.81-27.07 57.97-5.76 6.16 4.01 11.16 4.38 23.02 9.46 23.72 9.75 12.38 33.26-12.75 41.11-10.76 3.49-20.53 16.55-40.13 15.44-16.73-0.98-21.12-11.88-31.4-17.91-18.26-10.31-20.96-24.25-11.1-31.65 9.87-7.4 13.73-10.06 14.39-10.69z" transform="matrix(1.25 0 0 1.25 185.45 -167.5)" stroke="#e68c3f" stroke-width="3.75" fill="url(#linearGradient1437)"/>
  <path id="path120" d="m391.25 357.64c-9.88 0.59-31.39 22.1-54.07 22.1-22.67 0-36.04-20.93-39.53-20.93" transform="matrix(1.25 0 0 1.25 185.45 -167.5)" stroke="#e68c3f" stroke-width="2.5" fill="none"/>
  <path id="path123" d="m309.95 338.73c7.15-6.77 29.69-25.35 59.59-6.33 6.3 3.77 12.81 7.87 22.48 13.46 19.16 11.75 9.67 28.68-13.29 39.4-10.41 4.49-27.59 14.41-40.67 13.72-14.53-1.41-23.93-11.4-33.56-17.91-17.67-12.3-16.6-22.24-8.39-30.51 6.2-5.68 13.18-11.2 13.84-11.83z" fill="url(#linearGradient1439)" transform="matrix(.62788 0 0 .59567 392.37 51.817)"/>
 </g>
</svg>
