<?xml version="1.0" encoding="UTF-8" standalone="no"?>
<svg id="svg2943" xmlns="http://www.w3.org/2000/svg" height="159" width="300" version="1.1" xmlns:xlink="http://www.w3.org/1999/xlink" viewBox="0 0 300 160">
 <defs id="defs2945">
  <radialGradient id="radialGradient3870" gradientUnits="userSpaceOnUse" cy="-48.545" cx="77.914" gradientTransform="matrix(1.5089 0 0 1.3582 -39.029 76.958)" r="146">
   <stop id="stop3800" stop-color="#dddce9" offset="0"/>
   <stop id="stop3802" stop-color="#5664a3" offset=".37"/>
   <stop id="stop3804" offset="1"/>
  </radialGradient>
 </defs>
 <ellipse id="ellipse3860" rx="146" ry="76" stroke="url(#radialGradient3870)" cy="80" cx="150" stroke-width="5.5" fill="#6c7eb7"/>
 <path id="p" stroke-linejoin="round" d="m45 125 16-81h37c16 1 24 9 24 23 0 24-19 38-36 37h-18l-4 21h-19zm27-36 5-30h13c7 0 12 3 12 9-1 17-9 20-18 21h-12z" fill-rule="evenodd" stroke="#fff" stroke-width="2"/>
 <path id="h" stroke-linejoin="round" d="m116 104 16-81h19l-4 21h18c16 1 22 9 20 19l-7 41h-20l7-37c1-5 1-8-6-8h-15l-9 45h-19z" stroke="#fff" stroke-width="2"/>
 <use id="p2" xlink:href="#p" transform="translate(134)"/>
</svg>
