<?xml version="1.0" encoding="UTF-8" standalone="no"?>
<!-- Created with Inkscape (http://www.inkscape.org/) -->
<svg id="svg2" xmlns:rdf="http://www.w3.org/1999/02/22-rdf-syntax-ns#" xmlns="http://www.w3.org/2000/svg" height="500" width="450" version="1.1" xmlns:cc="http://creativecommons.org/ns#" xmlns:xlink="http://www.w3.org/1999/xlink" xmlns:dc="http://purl.org/dc/elements/1.1/">
 <metadata id="metadata7">
  <rdf:RDF>
   <cc:Work rdf:about="">
    <dc:format>image/svg+xml</dc:format>
    <dc:type rdf:resource="http://purl.org/dc/dcmitype/StillImage"/>
    <dc:title/>
   </cc:Work>
  </rdf:RDF>
 </metadata>
 <g id="layer1" transform="translate(0 -552.36)">
  <g id="g6015" transform="matrix(7.7276 0 0 7.7276 2025.6 -6542.9)">
   <path id="path2466-5" stroke-linejoin="round" d="m-235.17 951.03c-0.12023 4.2985 0.19262 7.7093 0.61322 8.7613 0.42087 1.0519 1.8088 2.6109 4.9059 1.9474 2.5875-0.5548 3.7726-1.6283 4.1811-3.9978 0.30089-1.7433 0.71855-5.3424 0.79295-6.3344" stroke="#000" stroke-linecap="round" stroke-width="1.0821" fill="none"/>
   <path id="path2468-0" stroke-linejoin="round" d="m-237.4 929s-14.265-5.731-13.614 7.3016c0.13864 2.7726 4.2178 20.979 8.7922 15.48 2.7679-2.5795 3.1835-3.5884 3.1835-3.5884" stroke="#000" stroke-linecap="round" stroke-width="1.0821" fill="none"/>
   <path id="path2470-7" stroke-linejoin="round" d="m-230.82 927.95c-0.48536 0.15218 7.7998-3.0288 12.508 2.9878 1.6632 2.1255-0.26416 10.81-4.8747 17.651" stroke="#000" stroke-linecap="round" stroke-width="1.0821" fill="none"/>
   <path id="path2472-2" stroke-linejoin="bevel" d="m-223.19 947.18s0.30046 1.4789 4.6673 0.57756c1.9133-0.39517 0.76186 2.5139-1.1786 3.4151-1.5926 0.73911-5.163 0.92851-5.2214-0.0928-0.1501-2.6352 1.8792-3.2396 1.7328-3.8999-0.13239-0.59466-1.0399 0.22669-1.6402-1.2287-0.52408-1.2703-7.1876-11.012 1.848-9.5652 0.33101-0.0685-2.3566-8.5945-10.813-8.7331-8.4541-0.13864-8.1768 10.397-8.1768 10.397" stroke="#000" stroke-linecap="round" stroke-width="1.0821" fill="none"/>
   <path id="path2474-7" stroke-linejoin="round" d="m-237.05 949.49c-1.1786 1.3166-0.832 1.5478-3.188 2.0329-2.3838 0.49133-0.98195 0.97463-0.0692 1.2449 1.961 0.3586 3.5103 0.9382 5.4054-1.0819 0.52764-0.73868-0.003-2.2421-0.72792-2.5426-0.3502-0.14506-0.81846-0.32685-1.4203 0.34673z" stroke="#000" stroke-linecap="round" stroke-width="1.0821" fill="none"/>
   <path id="path2476-1" stroke-linejoin="round" d="m-237.13 949.47c-0.11876-0.7741 0.25435-1.6952 0.65421-2.7729 0.60091-1.617 1.9874-3.2342 0.87827-8.3633-0.82671-3.8222-6.3716-0.79545-6.3751-0.27719-0.003 0.51809 0.2508 2.6269-0.0926 5.0826-0.44812 3.2045 2.039 5.9146 4.903 5.6374" stroke="#000" stroke-linecap="round" stroke-width="1.0821" fill="none"/>
   <path id="path2478-4" d="m-238.45 937.98c-0.025 0.17701 0.32406 0.64935 0.77922 0.71247 0.45437 0.0634 0.84328-0.30575 0.86794-0.48259 0.0247-0.17701-0.32398-0.37199-0.77931-0.43536-0.45463-0.0635-0.84372 0.0289-0.86777 0.20548h-0.00008z" stroke="#000" stroke-width=".36070" fill="none"/>
   <path id="path2480-8" d="m-224.61 937.62c0.0247 0.17701-0.32398 0.64935-0.77922 0.71246-0.45472 0.0634-0.84364-0.30575-0.86855-0.48258-0.0241-0.17701 0.32467-0.37199 0.77948-0.43536 0.4548-0.0634 0.84363 0.0289 0.86829 0.20557v-0.00009z" stroke="#000" stroke-width=".18035" fill="none"/>
   <path id="path2482-4" stroke-linejoin="round" d="m-222.98 936.39c0.0749 1.3885-0.29907 2.3342-0.34621 3.8122-0.0698 2.1484 1.0243 4.6074-0.62426 7.0695" stroke="#000" stroke-linecap="round" stroke-width="1.0821" fill="none"/>
   <path id="path11678" d="m-239.91 948.76 2.7136-0.0624-1.1924 1.7459-2.0558-0.18706z"/>
   <path id="path2464" stroke-linejoin="round" d="m-219.37 948.53c-4.0245 0.83015-4.3012-0.53245-4.3012-0.53245 4.2492-6.3052 6.0255-14.309 4.4926-16.267-4.182-5.3432-11.421-2.8162-11.542-2.7506l-0.0389 0.007c-0.79511-0.16505-1.6849-0.26338-2.685-0.2797-1.821-0.0299-3.2023 0.4774-4.2505 1.2723 0 0-12.914-5.32-12.313 6.691 0.12777 2.5552 3.6624 19.334 7.8783 14.266 1.5409-1.8532 3.0298-3.4201 3.0298-3.4201 0.7395 0.49124 1.6248 0.74182 2.5529 0.65182l0.0721-0.0612c-0.0224 0.2301-0.0122 0.45516 0.0289 0.72158-1.0861 1.2135-0.76695 1.4265-2.9381 1.8734-2.1969 0.45275-0.90631 1.2589-0.0637 1.4696 1.0215 0.2554 3.3848 0.6173 4.9817-1.6181l-0.0637 0.25507c0.42555 0.34082 0.72438 2.2171 0.67429 3.9179-0.0501 1.7009-0.0835 2.8686 0.25178 3.7807 0.33531 0.912 0.6695 2.9642 3.5236 2.3526 2.3849-0.511 3.6208-1.8355 3.7927-4.0447 0.12201-1.5706 0.39811-1.3384 0.41555-2.7426l0.22146-0.6649c0.25538-2.129 0.0406-2.8159 1.5099-2.4964l0.35707 0.0314c1.0814 0.0492 2.4968-0.17394 3.3276-0.56005 1.7888-0.83015 2.8497-2.2162 1.0859-1.852h0.00016z" stroke="#fff" stroke-linecap="round" stroke-width=".99729" fill="#316192"/>
   <path id="path2466" stroke-linejoin="round" d="m-234.29 949.75c-0.11081 3.9616 0.0278 7.9508 0.41548 8.9203 0.38787 0.9696 1.2179 2.8553 4.0723 2.2438 2.3847-0.5112 3.2524-1.5006 3.6289-3.6844 0.2773-1.6067 0.81191-6.0688 0.88047-6.983" stroke="#fff" stroke-linecap="round" stroke-width=".99729" fill="#316192"/>
   <path id="path2468" stroke-linejoin="round" d="m-237.71 929.89s-12.923-5.2817-12.322 6.7293c0.12777 2.5553 3.6626 19.335 7.8785 14.266 1.5406-1.8534 2.9339-3.3071 2.9339-3.3071" stroke="#fff" stroke-linecap="round" stroke-width=".99729" fill="#316192"/>
   <path id="path2470" stroke-linejoin="round" d="m-230.73 928.92c-0.44732 0.14026 7.1884-2.7914 11.528 2.7536 1.5328 1.9589-0.24346 9.9624-4.4926 16.268" stroke="#fff" stroke-linecap="round" stroke-width=".99729" fill="#316192"/>
   <path id="path2472" stroke-linejoin="bevel" d="m-223.7 947.95s0.27691 1.363 4.3015 0.53228c1.7634-0.36419 0.70214 1.022-1.0862 1.8526-1.4677 0.68117-4.7583 0.85575-4.8121-0.0855-0.13833-2.4286 1.7319-1.6908 1.5969-2.2993-0.12201-0.54805-0.9584-1.0859-1.5116-2.4272-0.483-1.1707-6.6242-10.149 1.7031-8.8154 0.30507-0.0631-2.1719-7.9208-9.9651-8.0486-7.7914-0.12777-7.5358 9.5818-7.5358 9.5818" stroke="#fff" stroke-linecap="round" stroke-width=".99729" fill="#316192"/>
   <path id="path2474" stroke-linejoin="round" d="m-236.47 948.78c-1.0862 1.2134-0.76678 1.4264-2.9381 1.8735-2.1969 0.45284-0.90616 1.2588-0.0638 1.4693 1.0215 0.2557 3.3848 0.6175 4.9817-1.6184 0.48628-0.68078-0.003-1.767-0.67085-2.0439-0.32275-0.13369-0.75431-0.30122-1.309 0.31955v0z" stroke="#fff" stroke-linecap="round" stroke-width=".99729" fill="#316192"/>
   <path id="path2476" stroke-linejoin="round" d="m-236.54 948.75c-0.10945-0.71342 0.23442-1.5624 0.60293-2.5556 0.5538-1.4902 1.8316-2.9806 0.80942-7.7078-0.7619-3.5226-5.8722-0.7331-5.8754-0.25546-0.003 0.47748 0.23114 2.421-0.0854 4.6842-0.41299 2.9533 1.8792 5.451 4.5187 5.1955" stroke="#fff" stroke-linecap="round" stroke-width=".99729" fill="#316192"/>
   <path id="path2478" d="m-237.76 938.16c-0.023 0.16314 0.29867 0.59845 0.71814 0.65662 0.41876 0.0584 0.77719-0.28179 0.79991-0.44476 0.0227-0.16313-0.29858-0.34283-0.71822-0.40123-0.41899-0.0585-0.77758 0.0266-0.79975 0.18937h-0.00008z" stroke="#fff" stroke-width=".33243" fill="#fff"/>
   <path id="path2480" d="m-225 937.83c0.0227 0.16313-0.29859 0.59845-0.71814 0.65661-0.41908 0.0584-0.77751-0.28178-0.80047-0.44476-0.0222-0.16313 0.29922-0.34282 0.71838-0.40123 0.41915-0.0584 0.7775 0.0266 0.80023 0.18946v-0.00008z" stroke="#fff" stroke-width=".16621" fill="#fff"/>
   <path id="path2482" stroke-linejoin="round" d="m-223.51 936.7c0.0691 1.2796-0.27562 2.1512-0.31907 3.5134-0.0643 1.98 0.944 4.2463-0.57532 6.5154" stroke="#fff" stroke-linecap="round" stroke-width=".99729" fill="#316192"/>
   <path id="path5731" fill="#FFFFFF" d="m-252.27 969.97c-0.00001 0.57-0.16911 1.0165-0.50731 1.3395-0.33822 0.323-0.80183 0.4845-1.3908 0.4845h-2.3484l0.006 2.6962-0.63842 0.01v-6.3386l3.1579-0.011c0.54341 0 0.96522 0.1615 1.2654 0.4845 0.304 0.323 0.456 0.7696 0.45601 1.3396m-0.64412 0.023c0-0.8892-0.42561-1.3339-1.2768-1.3339l-2.3256-0.01v2.6392h2.206c0.93102 0 1.3965-0.4332 1.3965-1.2996"/>
   <path id="path5733" fill="#FFFFFF" d="m-247.65 972.42c-0.00001 0.6764-0.17671 1.2047-0.53011 1.5847-0.39522 0.4256-0.97093 0.6384-1.7271 0.6384-0.36101 0-0.67642-0.049-0.94623-0.1482-0.266-0.1026-0.49971-0.2622-0.70111-0.4788-0.36481-0.4066-0.54722-0.9387-0.54722-1.5961 0-0.6612 0.17671-1.1856 0.53012-1.5732 0.3914-0.4332 0.94622-0.6498 1.6644-0.6498 0.76001 0 1.3338 0.2109 1.7214 0.6327 0.3572 0.38 0.5358 0.9101 0.53581 1.5903m-0.55291 0c-0.00001-1.1818-0.56812-1.7727-1.7043-1.7727-0.51302 0-0.91583 0.1577-1.2084 0.4731-0.14061 0.152-0.24891 0.3382-0.32491 0.5586-0.0722 0.2166-0.1083 0.4636-0.1083 0.741 0 0.5434 0.1406 0.9766 0.42181 1.2997 0.285 0.3192 0.69161 0.4788 1.2198 0.4788 0.58521 0 1.0203-0.1653 1.3053-0.4959 0.1368-0.1482 0.2375-0.3288 0.3021-0.5416s0.0969-0.4598 0.0969-0.741"/>
   <path id="path5735" fill="#FFFFFF" d="m-243.19 973.35c-0.00001 0.8551-0.64032 1.2826-1.921 1.2826-0.39141 0-0.72202-0.03-0.99182-0.091-0.26601-0.061-0.48261-0.1596-0.64982-0.2964-0.1292-0.1026-0.2318-0.2375-0.3078-0.4047-0.076-0.171-0.12541-0.382-0.14821-0.6328l0.59282-0.01c0 0.3345 0.1045 0.5815 0.3135 0.7411 0.22421 0.19 0.62132 0.285 1.1913 0.285 0.89682 0 1.3452-0.2679 1.3452-0.8038 0-0.3116-0.1501-0.5263-0.45031-0.6441-0.0608-0.027-0.42371-0.087-1.0887-0.1824-0.66122-0.099-1.0735-0.1862-1.2369-0.2622-0.35341-0.1672-0.53011-0.4693-0.53011-0.9063 0-0.4256 0.1577-0.7429 0.47311-0.9519 0.1558-0.087 0.3496-0.1539 0.58141-0.1995 0.2356-0.049 0.50731-0.074 0.81512-0.074 1.2312 0 1.8468 0.4617 1.8468 1.3851h-0.56431c0-0.6498-0.43321-0.9747-1.2996-0.9747-0.44081 0-0.76952 0.067-0.98612 0.1995-0.21661 0.1292-0.32491 0.3306-0.32491 0.6042 0 0.2546 0.1463 0.437 0.43891 0.5472 0.171 0.061 0.56431 0.1292 1.1799 0.2052 0.55101 0.061 0.92911 0.1444 1.1343 0.2508 0.39141 0.1824 0.58711 0.4921 0.58712 0.9291"/>
   <path id="path5737" fill="#FFFFFF" d="m-240.6 974.51c-0.0912 0.019-0.17291 0.032-0.24511 0.04-0.0684 0.01-0.1178 0.011-0.1482 0.011-0.38761 0-0.66692-0.067-0.83792-0.1995-0.17101-0.1368-0.25651-0.3743-0.25651-0.7125v-2.8786h-0.70682v-0.4275h0.70112l0.006-1.3738h0.54151v1.3795l0.94623-0.01v0.4332l-0.94623-0.01v2.7987c0 0.2091 0.0456 0.3535 0.13681 0.4333 0.095 0.08 0.2622 0.1197 0.50161 0.1197 0.0342 0 0.0722 0 0.114-0.01s0.1045-0.021 0.18811-0.04l0.006 0.4332"/>
   <path id="path5739" fill="#FFFFFF" d="m-236.17 974.37c-0.00001 1.2616-0.70872 1.8924-2.1262 1.8924-0.74102 0-1.2673-0.1216-1.5789-0.3648-0.26981-0.209-0.43511-0.5453-0.49591-1.0089l0.55861-0.01c0.0646 0.3382 0.18241 0.5738 0.35341 0.7068 0.228 0.1786 0.60991 0.2679 1.1457 0.2679 0.57001 0 0.97852-0.1292 1.2255-0.3876 0.2508-0.2584 0.3762-0.6251 0.3762-1.1001l-0.006-0.741c-0.34202 0.5358-0.92153 0.8037-1.7386 0.8037-0.68021 0-1.2065-0.1862-1.5789-0.5586-0.17101-0.1824-0.30211-0.4029-0.39331-0.6613-0.0874-0.2622-0.1311-0.5605-0.1311-0.8949 0-0.6688 0.1767-1.1799 0.53011-1.5333 0.37241-0.3876 0.91202-0.5814 1.6188-0.5814 0.4826 0 0.87591 0.1007 1.1799 0.3021 0.1026 0.076 0.27361 0.2603 0.51302 0.5529l0.006-0.7182h0.54151v4.03m-0.54151-2.0749c-0.00001-0.4978-0.13871-0.8949-0.41611-1.1913-0.27361-0.3002-0.67642-0.4503-1.2084-0.4503-0.52822 0-0.93863 0.1482-1.2312 0.4446-0.28881 0.2926-0.43321 0.6992-0.43321 1.2198 0 1.121 0.56811 1.6816 1.7043 1.6816 0.247 0 0.46551-0.038 0.65551-0.114s0.35911-0.1881 0.50732-0.3364c0.2812-0.2926 0.4218-0.7106 0.4218-1.254"/>
   <path id="path5741" fill="#FFFFFF" d="m-233.02 970.76c-0.1634-0.03-0.31541-0.046-0.45601-0.046-0.89302 0-1.3395 0.5833-1.3395 1.7499l0.006 2.0236h-0.54151l-0.006-4.144 0.54151-0.01v0.7467h0.0285c0.0912-0.2926 0.23561-0.513 0.43321-0.6612 0.2166-0.1444 0.53961-0.2166 0.96902-0.2166h0.21661c0.0608 0 0.1102 0 0.1482 0.01v0.5472"/>
   <path id="path5743" fill="#FFFFFF" d="m-228.55 972.53h-3.8704c0 0.475 0.13111 0.8626 0.39331 1.1629 0.30401 0.3496 0.73912 0.5244 1.3053 0.5244 0.80182 0 1.3034-0.3591 1.5048-1.0774h0.58711c-0.0874 0.4105-0.29451 0.7563-0.62131 1.0375-0.18621 0.1482-0.40472 0.2622-0.65552 0.342-0.24701 0.084-0.51681 0.1254-0.80942 0.1254-0.73342 0-1.3015-0.2204-1.7043-0.6612-0.37241-0.3952-0.55861-0.9292-0.55861-1.6018 0-0.6688 0.1938-1.197 0.58141-1.5846 0.38761-0.3914 0.93292-0.5871 1.6359-0.5871 0.37621 0 0.70492 0.055 0.98612 0.1653 0.28121 0.1064 0.51681 0.2717 0.70682 0.4959 0.3458 0.4028 0.51871 0.9557 0.51871 1.6587m-0.57001-0.3762c0-0.399-0.15391-0.7562-0.46171-1.0716-0.30401-0.3154-0.69732-0.4731-1.1799-0.4731-0.24701 0-0.46931 0.038-0.66691 0.114-0.19761 0.072-0.37431 0.1843-0.53012 0.3363-0.2394 0.2584-0.39331 0.6232-0.46171 1.0944h3.3004"/>
   <path id="path5724" fill="#316192" d="m-221.47 972.81c0 1.4881-1.0019 2.2321-3.0058 2.2321-1.2005 0-2.0769-0.2556-2.6292-0.7668-0.4519-0.42-0.67785-1.059-0.67785-1.9172h0.80794c0 1.3831 0.83304 2.0747 2.4991 2.0747 0.79881 0 1.3762-0.1438 1.7323-0.4314 0.30126-0.2465 0.4519-0.6368 0.4519-1.1708 0-0.5295-0.20541-0.9015-0.61622-1.1161-0.2328-0.1141-0.8011-0.2579-1.7049-0.4313-1.1366-0.2054-1.8738-0.4131-2.2116-0.6231-0.48841-0.3058-0.73262-0.8216-0.73262-1.5474 0-0.6847 0.20769-1.1914 0.62307-1.52 0.44734-0.3652 1.2142-0.5478 2.3006-0.5478 1.9628 0 2.9442 0.7783 2.9442 2.3348h-0.81478c-0.00001-1.1639-0.72806-1.7459-2.1842-1.7459-0.73035 0-1.2644 0.1164-1.6022 0.3492-0.31953 0.251-0.47929 0.6185-0.47929 1.1023 0 0.5067 0.20541 0.865 0.61622 1.075 0.2191 0.1187 0.86271 0.283 1.9308 0.493 1.0042 0.1825 1.6821 0.3925 2.0335 0.6299 0.47928 0.2967 0.71892 0.8056 0.71892 1.5268"/>
   <path id="path5726" fill="#316192" d="m-213.46 975.02-0.49297 0.5341-1.1914-0.9928c-0.25106 0.1597-0.55689 0.2807-0.91749 0.3628-0.36061 0.082-0.78284 0.1233-1.2667 0.1233-1.237 0-2.2138-0.3675-2.9305-1.1024-0.71208-0.7394-1.0681-1.7094-1.0681-2.9099 0-1.2279 0.35376-2.2024 1.0613-2.9237 0.70751-0.7212 1.6821-1.0818 2.9236-1.0818 0.63905 0 1.2073 0.096 1.7049 0.2876 0.49754 0.1917 0.92205 0.4839 1.2735 0.8764 0.6573 0.7121 0.98595 1.6593 0.98596 2.8415-0.00001 0.6619-0.10043 1.2461-0.30127 1.7528-0.20085 0.5021-0.51124 0.9289-0.93118 1.2804l1.1503 0.9517m-0.69154-3.9849c0-0.5204-0.0708-0.9837-0.21225-1.3899-0.14151-0.4109-0.36061-0.7692-0.65731-1.075-0.56145-0.6254-1.3329-0.938-2.3143-0.938-0.9677 0-1.746 0.2989-2.3348 0.8969-0.58427 0.598-0.87641 1.4333-0.87641 2.506 0 1.0316 0.29442 1.8578 0.88326 2.4786 0.59339 0.6162 1.3694 0.9243 2.328 0.9243 0.47015 0 0.89466-0.073 1.2735-0.2191 0.37886-0.1461 0.71892-0.3629 1.0202-0.6505 0.5934-0.6207 0.8901-1.4652 0.8901-2.5333"/>
   <path id="path5728" fill="#316192" d="m-207.36 974.85-5.5118 0.01v-7.6138l0.76001-0.014v6.9839h4.7586l-0.007 0.6368"/>
  </g>
 </g>
</svg>
